<mxfile host="app.diagrams.net" agent="Mozilla/5.0 (Windows NT 10.0; Win64; x64) AppleWebKit/537.36 (KHTML, like Gecko) Chrome/136.0.0.0 Safari/537.36" version="27.0.5">
  <diagram name="Strona-1" id="IvmJUWWYAiuel7kVuwOy">
    <mxGraphModel dx="1426" dy="817" grid="1" gridSize="10" guides="1" tooltips="1" connect="1" arrows="1" fold="1" page="1" pageScale="1" pageWidth="827" pageHeight="1169" math="0" shadow="0">
      <root>
        <mxCell id="0" />
        <mxCell id="1" parent="0" />
        <mxCell id="L0t0Dum3Yr82zFUlzKBI-2" value="" style="rounded=0;whiteSpace=wrap;html=1;" vertex="1" parent="1">
          <mxGeometry width="820" height="620" as="geometry" />
        </mxCell>
        <mxCell id="PN3j98BIjmgV5FSvL1AX-1" value="" style="rounded=1;whiteSpace=wrap;html=1;" parent="1" vertex="1">
          <mxGeometry width="820" height="70" as="geometry" />
        </mxCell>
        <mxCell id="PN3j98BIjmgV5FSvL1AX-6" value="Paczka24" style="text;html=1;align=center;verticalAlign=middle;resizable=0;points=[];autosize=1;strokeColor=none;fillColor=none;fontStyle=1;fontSize=19;" parent="1" vertex="1">
          <mxGeometry x="180" y="15" width="110" height="40" as="geometry" />
        </mxCell>
        <mxCell id="PN3j98BIjmgV5FSvL1AX-7" value="" style="html=1;verticalLabelPosition=bottom;align=center;labelBackgroundColor=#ffffff;verticalAlign=top;strokeWidth=2;shadow=0;dashed=0;shape=mxgraph.ios7.icons.settings;" parent="1" vertex="1">
          <mxGeometry x="780" y="20" width="30" height="30" as="geometry" />
        </mxCell>
        <mxCell id="PN3j98BIjmgV5FSvL1AX-10" value="Użytkownik: X" style="text;html=1;align=center;verticalAlign=middle;resizable=0;points=[];autosize=1;strokeColor=none;fillColor=none;" parent="1" vertex="1">
          <mxGeometry x="280" y="21.4" width="100" height="30" as="geometry" />
        </mxCell>
        <mxCell id="PN3j98BIjmgV5FSvL1AX-14" value="" style="html=1;verticalLabelPosition=bottom;align=center;labelBackgroundColor=#ffffff;verticalAlign=top;strokeWidth=2;shadow=0;dashed=0;shape=mxgraph.ios7.icons.most_viewed;pointerEvents=1" parent="1" vertex="1">
          <mxGeometry x="730" y="23.6" width="28.2" height="22.8" as="geometry" />
        </mxCell>
        <mxCell id="PN3j98BIjmgV5FSvL1AX-18" value="Wyszukaj..." style="rounded=1;whiteSpace=wrap;html=1;align=left;textOpacity=50;" parent="1" vertex="1">
          <mxGeometry x="620" y="85" width="180" height="25" as="geometry" />
        </mxCell>
        <mxCell id="PN3j98BIjmgV5FSvL1AX-19" value="" style="sketch=0;outlineConnect=0;fontColor=#232F3E;gradientColor=none;fillColor=#232F3D;strokeColor=none;dashed=0;verticalLabelPosition=bottom;verticalAlign=top;align=center;html=1;fontSize=12;fontStyle=0;aspect=fixed;pointerEvents=1;shape=mxgraph.aws4.magnifying_glass_2;" parent="1" vertex="1">
          <mxGeometry x="770" y="87.5" width="20" height="20" as="geometry" />
        </mxCell>
        <mxCell id="PN3j98BIjmgV5FSvL1AX-26" value="Wpisz numer przesyłki" style="rounded=0;whiteSpace=wrap;html=1;textOpacity=60;" parent="1" vertex="1">
          <mxGeometry x="290" y="290" width="290" height="20" as="geometry" />
        </mxCell>
        <mxCell id="PN3j98BIjmgV5FSvL1AX-27" value="Śledź przesyłkę" style="text;html=1;align=center;verticalAlign=middle;whiteSpace=wrap;rounded=0;fontSize=19;fontStyle=1" parent="1" vertex="1">
          <mxGeometry x="350" y="260" width="170" height="30" as="geometry" />
        </mxCell>
        <mxCell id="8VmDItg4nQ9LfFQrZR_M-1" value="Szukaj" style="rounded=0;whiteSpace=wrap;html=1;" parent="1" vertex="1">
          <mxGeometry x="390" y="320" width="90" height="30" as="geometry" />
        </mxCell>
        <mxCell id="8VmDItg4nQ9LfFQrZR_M-2" value="Wyloguj" style="rounded=0;whiteSpace=wrap;html=1;" parent="1" vertex="1">
          <mxGeometry x="600" y="23.6" width="90" height="25" as="geometry" />
        </mxCell>
        <mxCell id="L0t0Dum3Yr82zFUlzKBI-4" value="" style="endArrow=none;html=1;rounded=0;exitX=0.194;exitY=0.997;exitDx=0;exitDy=0;entryX=0.193;entryY=1.029;entryDx=0;entryDy=0;entryPerimeter=0;exitPerimeter=0;" edge="1" parent="1" source="L0t0Dum3Yr82zFUlzKBI-2" target="PN3j98BIjmgV5FSvL1AX-1">
          <mxGeometry width="50" height="50" relative="1" as="geometry">
            <mxPoint x="420" y="230" as="sourcePoint" />
            <mxPoint x="470" y="180" as="targetPoint" />
          </mxGeometry>
        </mxCell>
        <mxCell id="L0t0Dum3Yr82zFUlzKBI-5" value="Moje przesyłki" style="rounded=1;whiteSpace=wrap;html=1;" vertex="1" parent="1">
          <mxGeometry x="20" y="100" width="120" height="60" as="geometry" />
        </mxCell>
        <mxCell id="L0t0Dum3Yr82zFUlzKBI-6" value="Moje Konto" style="rounded=1;whiteSpace=wrap;html=1;" vertex="1" parent="1">
          <mxGeometry x="20" y="180" width="120" height="60" as="geometry" />
        </mxCell>
        <mxCell id="L0t0Dum3Yr82zFUlzKBI-7" value="&lt;div&gt;Tu Jesteś :&lt;/div&gt;&lt;div&gt;&lt;u&gt;&lt;br&gt;&lt;/u&gt;&lt;/div&gt;&lt;u&gt;Strona główna&lt;/u&gt;" style="text;html=1;align=center;verticalAlign=middle;resizable=0;points=[];autosize=1;strokeColor=none;fillColor=none;" vertex="1" parent="1">
          <mxGeometry x="190" y="85" width="100" height="60" as="geometry" />
        </mxCell>
        <mxCell id="L0t0Dum3Yr82zFUlzKBI-8" value="" style="shape=mxgraph.sysml.x;" vertex="1" parent="1">
          <mxGeometry x="45" y="12.8" width="70" height="38.6" as="geometry" />
        </mxCell>
      </root>
    </mxGraphModel>
  </diagram>
</mxfile>
